<svg xmlns="http://www.w3.org/2000/svg" version="1.1" xmlns:xlink="http://www.w3.org/1999/xlink" xmlns:svgjs="http://svgjs.com/svgjs" width="1440" height="560" preserveAspectRatio="none" viewBox="0 0 1440 560"><g mask="url(&quot;#SvgjsMask1078&quot;)" fill="none"><path d="M71.88 -56.42L136.83 -18.92L136.83 56.08L71.88 93.58L6.93 56.08L6.93 -18.92zM136.83 56.08L201.79 93.58L201.79 168.58L136.83 206.08L71.88 168.58L71.88 93.58zM136.83 281.08L201.79 318.58L201.79 393.58L136.83 431.08L71.88 393.58L71.88 318.58zM71.88 393.58L136.83 431.08L136.83 506.08L71.88 543.58L6.93 506.08L6.93 431.08zM136.83 506.08L201.79 543.58L201.79 618.58L136.83 656.08L71.88 618.58L71.88 543.58zM266.74 56.08L331.69 93.58L331.69 168.58L266.74 206.08L201.79 168.58L201.79 93.58zM331.69 -56.42L396.65 -18.92L396.65 56.08L331.69 93.58L266.74 56.08L266.74 -18.92zM396.65 56.08L461.6 93.58L461.6 168.58L396.65 206.08L331.69 168.58L331.69 93.58zM396.65 281.08L461.6 318.58L461.6 393.58L396.65 431.08L331.69 393.58L331.69 318.58zM526.56 56.08L591.51 93.58L591.51 168.58L526.56 206.08L461.6 168.58L461.6 93.58zM526.56 281.08L591.51 318.58L591.51 393.58L526.56 431.08L461.6 393.58L461.6 318.58zM591.51 393.58L656.46 431.08L656.46 506.08L591.51 543.58L526.56 506.08L526.56 431.08zM656.46 506.08L721.42 543.58L721.42 618.58L656.46 656.08L591.51 618.58L591.51 543.58zM786.37 56.08L851.33 93.58L851.33 168.58L786.37 206.08L721.42 168.58L721.42 93.58zM786.37 281.08L851.33 318.58L851.33 393.58L786.37 431.08L721.42 393.58L721.42 318.58zM721.42 393.58L786.37 431.08L786.37 506.08L721.42 543.58L656.46 506.08L656.46 431.08zM851.32 -56.42L916.28 -18.92L916.28 56.08L851.32 93.58L786.37 56.08L786.37 -18.92zM916.28 281.08L981.23 318.58L981.23 393.58L916.28 431.08L851.32 393.58L851.32 318.58zM851.32 393.58L916.28 431.08L916.28 506.08L851.32 543.58L786.37 506.08L786.37 431.08zM916.28 506.08L981.23 543.58L981.23 618.58L916.28 656.08L851.32 618.58L851.32 543.58zM981.23 -56.42L1046.19 -18.92L1046.19 56.08L981.23 93.58L916.28 56.08L916.28 -18.92zM1046.19 56.08L1111.14 93.58L1111.14 168.58L1046.19 206.08L981.23 168.58L981.23 93.58zM1111.14 -56.42L1176.09 -18.92L1176.09 56.08L1111.14 93.58L1046.19 56.08L1046.19 -18.92zM1111.14 393.58L1176.09 431.08L1176.09 506.08L1111.14 543.58L1046.19 506.08L1046.19 431.08zM1241.05 168.58L1306 206.08L1306 281.08L1241.05 318.58L1176.09 281.08L1176.09 206.08zM1241.05 393.58L1306 431.08L1306 506.08L1241.05 543.58L1176.09 506.08L1176.09 431.08zM1370.95 168.58L1435.91 206.08L1435.91 281.08L1370.95 318.58L1306 281.08L1306 206.08zM1500.86 -56.42L1565.82 -18.92L1565.82 56.08L1500.86 93.58L1435.91 56.08L1435.91 -18.92zM1565.82 56.08L1630.77 93.58L1630.77 168.58L1565.82 206.08L1500.86 168.58L1500.86 93.58zM1500.86 168.58L1565.82 206.08L1565.82 281.08L1500.86 318.58L1435.91 281.08L1435.91 206.08zM1500.86 393.58L1565.82 431.08L1565.82 506.08L1500.86 543.58L1435.91 506.08L1435.91 431.08zM1565.82 506.08L1630.77 543.58L1630.77 618.58L1565.82 656.08L1500.86 618.58L1500.86 543.58z" stroke="rgba(0, 0, 0, 0.95)" stroke-width="2"></path><path d="M64.38 -56.42 a7.5 7.5 0 1 0 15 0 a7.5 7.5 0 1 0 -15 0zM129.33 -18.92 a7.5 7.5 0 1 0 15 0 a7.5 7.5 0 1 0 -15 0zM129.33 56.08 a7.5 7.5 0 1 0 15 0 a7.5 7.5 0 1 0 -15 0zM64.38 93.58 a7.5 7.5 0 1 0 15 0 a7.5 7.5 0 1 0 -15 0zM-0.57 56.08 a7.5 7.5 0 1 0 15 0 a7.5 7.5 0 1 0 -15 0zM-0.57 -18.92 a7.5 7.5 0 1 0 15 0 a7.5 7.5 0 1 0 -15 0zM194.29 93.58 a7.5 7.5 0 1 0 15 0 a7.5 7.5 0 1 0 -15 0zM194.29 168.58 a7.5 7.5 0 1 0 15 0 a7.5 7.5 0 1 0 -15 0zM129.33 206.08 a7.5 7.5 0 1 0 15 0 a7.5 7.5 0 1 0 -15 0zM64.38 168.58 a7.5 7.5 0 1 0 15 0 a7.5 7.5 0 1 0 -15 0zM129.33 281.08 a7.5 7.5 0 1 0 15 0 a7.5 7.5 0 1 0 -15 0zM194.29 318.58 a7.5 7.5 0 1 0 15 0 a7.5 7.5 0 1 0 -15 0zM194.29 393.58 a7.5 7.5 0 1 0 15 0 a7.5 7.5 0 1 0 -15 0zM129.33 431.08 a7.5 7.5 0 1 0 15 0 a7.5 7.5 0 1 0 -15 0zM64.38 393.58 a7.5 7.5 0 1 0 15 0 a7.5 7.5 0 1 0 -15 0zM64.38 318.58 a7.5 7.5 0 1 0 15 0 a7.5 7.5 0 1 0 -15 0zM129.33 506.08 a7.5 7.5 0 1 0 15 0 a7.5 7.5 0 1 0 -15 0zM64.38 543.58 a7.5 7.5 0 1 0 15 0 a7.5 7.5 0 1 0 -15 0zM-0.57 506.08 a7.5 7.5 0 1 0 15 0 a7.5 7.5 0 1 0 -15 0zM-0.57 431.08 a7.5 7.5 0 1 0 15 0 a7.5 7.5 0 1 0 -15 0zM194.29 543.58 a7.5 7.5 0 1 0 15 0 a7.5 7.5 0 1 0 -15 0zM194.29 618.58 a7.5 7.5 0 1 0 15 0 a7.5 7.5 0 1 0 -15 0zM129.33 656.08 a7.5 7.5 0 1 0 15 0 a7.5 7.5 0 1 0 -15 0zM64.38 618.58 a7.5 7.5 0 1 0 15 0 a7.5 7.5 0 1 0 -15 0zM259.24 56.08 a7.5 7.5 0 1 0 15 0 a7.5 7.5 0 1 0 -15 0zM324.19 93.58 a7.5 7.5 0 1 0 15 0 a7.5 7.5 0 1 0 -15 0zM324.19 168.58 a7.5 7.5 0 1 0 15 0 a7.5 7.5 0 1 0 -15 0zM259.24 206.08 a7.5 7.5 0 1 0 15 0 a7.5 7.5 0 1 0 -15 0zM324.19 -56.42 a7.5 7.5 0 1 0 15 0 a7.5 7.5 0 1 0 -15 0zM389.15 -18.92 a7.5 7.5 0 1 0 15 0 a7.5 7.5 0 1 0 -15 0zM389.15 56.08 a7.5 7.5 0 1 0 15 0 a7.5 7.5 0 1 0 -15 0zM259.24 -18.92 a7.5 7.5 0 1 0 15 0 a7.5 7.5 0 1 0 -15 0zM454.1 93.58 a7.5 7.5 0 1 0 15 0 a7.5 7.5 0 1 0 -15 0zM454.1 168.58 a7.5 7.5 0 1 0 15 0 a7.5 7.5 0 1 0 -15 0zM389.15 206.08 a7.5 7.5 0 1 0 15 0 a7.5 7.5 0 1 0 -15 0zM389.15 281.08 a7.5 7.5 0 1 0 15 0 a7.5 7.5 0 1 0 -15 0zM454.1 318.58 a7.5 7.5 0 1 0 15 0 a7.5 7.5 0 1 0 -15 0zM454.1 393.58 a7.5 7.5 0 1 0 15 0 a7.5 7.5 0 1 0 -15 0zM389.15 431.08 a7.5 7.5 0 1 0 15 0 a7.5 7.5 0 1 0 -15 0zM324.19 393.58 a7.5 7.5 0 1 0 15 0 a7.5 7.5 0 1 0 -15 0zM324.19 318.58 a7.5 7.5 0 1 0 15 0 a7.5 7.5 0 1 0 -15 0zM519.06 56.08 a7.5 7.5 0 1 0 15 0 a7.5 7.5 0 1 0 -15 0zM584.01 93.58 a7.5 7.5 0 1 0 15 0 a7.5 7.5 0 1 0 -15 0zM584.01 168.58 a7.5 7.5 0 1 0 15 0 a7.5 7.5 0 1 0 -15 0zM519.06 206.08 a7.5 7.5 0 1 0 15 0 a7.5 7.5 0 1 0 -15 0zM519.06 281.08 a7.5 7.5 0 1 0 15 0 a7.5 7.5 0 1 0 -15 0zM584.01 318.58 a7.5 7.5 0 1 0 15 0 a7.5 7.5 0 1 0 -15 0zM584.01 393.58 a7.5 7.5 0 1 0 15 0 a7.5 7.5 0 1 0 -15 0zM519.06 431.08 a7.5 7.5 0 1 0 15 0 a7.5 7.5 0 1 0 -15 0zM648.96 431.08 a7.5 7.5 0 1 0 15 0 a7.5 7.5 0 1 0 -15 0zM648.96 506.08 a7.5 7.5 0 1 0 15 0 a7.5 7.5 0 1 0 -15 0zM584.01 543.58 a7.5 7.5 0 1 0 15 0 a7.5 7.5 0 1 0 -15 0zM519.06 506.08 a7.5 7.5 0 1 0 15 0 a7.5 7.5 0 1 0 -15 0zM713.92 543.58 a7.5 7.5 0 1 0 15 0 a7.5 7.5 0 1 0 -15 0zM713.92 618.58 a7.5 7.5 0 1 0 15 0 a7.5 7.5 0 1 0 -15 0zM648.96 656.08 a7.5 7.5 0 1 0 15 0 a7.5 7.5 0 1 0 -15 0zM584.01 618.58 a7.5 7.5 0 1 0 15 0 a7.5 7.5 0 1 0 -15 0zM778.87 56.08 a7.5 7.5 0 1 0 15 0 a7.5 7.5 0 1 0 -15 0zM843.83 93.58 a7.5 7.5 0 1 0 15 0 a7.5 7.5 0 1 0 -15 0zM843.83 168.58 a7.5 7.5 0 1 0 15 0 a7.5 7.5 0 1 0 -15 0zM778.87 206.08 a7.5 7.5 0 1 0 15 0 a7.5 7.5 0 1 0 -15 0zM713.92 168.58 a7.5 7.5 0 1 0 15 0 a7.5 7.5 0 1 0 -15 0zM713.92 93.58 a7.5 7.5 0 1 0 15 0 a7.5 7.5 0 1 0 -15 0zM778.87 281.08 a7.5 7.5 0 1 0 15 0 a7.5 7.5 0 1 0 -15 0zM843.83 318.58 a7.5 7.5 0 1 0 15 0 a7.5 7.5 0 1 0 -15 0zM843.83 393.58 a7.5 7.5 0 1 0 15 0 a7.5 7.5 0 1 0 -15 0zM778.87 431.08 a7.5 7.5 0 1 0 15 0 a7.5 7.5 0 1 0 -15 0zM713.92 393.58 a7.5 7.5 0 1 0 15 0 a7.5 7.5 0 1 0 -15 0zM713.92 318.58 a7.5 7.5 0 1 0 15 0 a7.5 7.5 0 1 0 -15 0zM778.87 506.08 a7.5 7.5 0 1 0 15 0 a7.5 7.5 0 1 0 -15 0zM843.82 -56.42 a7.5 7.5 0 1 0 15 0 a7.5 7.5 0 1 0 -15 0zM908.78 -18.92 a7.5 7.5 0 1 0 15 0 a7.5 7.5 0 1 0 -15 0zM908.78 56.08 a7.5 7.5 0 1 0 15 0 a7.5 7.5 0 1 0 -15 0zM843.82 93.58 a7.5 7.5 0 1 0 15 0 a7.5 7.5 0 1 0 -15 0zM778.87 -18.92 a7.5 7.5 0 1 0 15 0 a7.5 7.5 0 1 0 -15 0zM908.78 281.08 a7.5 7.5 0 1 0 15 0 a7.5 7.5 0 1 0 -15 0zM973.73 318.58 a7.5 7.5 0 1 0 15 0 a7.5 7.5 0 1 0 -15 0zM973.73 393.58 a7.5 7.5 0 1 0 15 0 a7.5 7.5 0 1 0 -15 0zM908.78 431.08 a7.5 7.5 0 1 0 15 0 a7.5 7.5 0 1 0 -15 0zM843.82 393.58 a7.5 7.5 0 1 0 15 0 a7.5 7.5 0 1 0 -15 0zM843.82 318.58 a7.5 7.5 0 1 0 15 0 a7.5 7.5 0 1 0 -15 0zM908.78 506.08 a7.5 7.5 0 1 0 15 0 a7.5 7.5 0 1 0 -15 0zM843.82 543.58 a7.5 7.5 0 1 0 15 0 a7.5 7.5 0 1 0 -15 0zM973.73 543.58 a7.5 7.5 0 1 0 15 0 a7.5 7.5 0 1 0 -15 0zM973.73 618.58 a7.5 7.5 0 1 0 15 0 a7.5 7.5 0 1 0 -15 0zM908.78 656.08 a7.5 7.5 0 1 0 15 0 a7.5 7.5 0 1 0 -15 0zM843.82 618.58 a7.5 7.5 0 1 0 15 0 a7.5 7.5 0 1 0 -15 0zM973.73 -56.42 a7.5 7.5 0 1 0 15 0 a7.5 7.5 0 1 0 -15 0zM1038.69 -18.92 a7.5 7.5 0 1 0 15 0 a7.5 7.5 0 1 0 -15 0zM1038.69 56.08 a7.5 7.5 0 1 0 15 0 a7.5 7.5 0 1 0 -15 0zM973.73 93.58 a7.5 7.5 0 1 0 15 0 a7.5 7.5 0 1 0 -15 0zM1103.64 93.58 a7.5 7.5 0 1 0 15 0 a7.5 7.5 0 1 0 -15 0zM1103.64 168.58 a7.5 7.5 0 1 0 15 0 a7.5 7.5 0 1 0 -15 0zM1038.69 206.08 a7.5 7.5 0 1 0 15 0 a7.5 7.5 0 1 0 -15 0zM973.73 168.58 a7.5 7.5 0 1 0 15 0 a7.5 7.5 0 1 0 -15 0zM1103.64 -56.42 a7.5 7.5 0 1 0 15 0 a7.5 7.5 0 1 0 -15 0zM1168.59 -18.92 a7.5 7.5 0 1 0 15 0 a7.5 7.5 0 1 0 -15 0zM1168.59 56.08 a7.5 7.5 0 1 0 15 0 a7.5 7.5 0 1 0 -15 0zM1103.64 393.58 a7.5 7.5 0 1 0 15 0 a7.5 7.5 0 1 0 -15 0zM1168.59 431.08 a7.5 7.5 0 1 0 15 0 a7.5 7.5 0 1 0 -15 0zM1168.59 506.08 a7.5 7.5 0 1 0 15 0 a7.5 7.5 0 1 0 -15 0zM1103.64 543.58 a7.5 7.5 0 1 0 15 0 a7.5 7.5 0 1 0 -15 0zM1038.69 506.08 a7.5 7.5 0 1 0 15 0 a7.5 7.5 0 1 0 -15 0zM1038.69 431.08 a7.5 7.5 0 1 0 15 0 a7.5 7.5 0 1 0 -15 0zM1233.55 168.58 a7.5 7.5 0 1 0 15 0 a7.5 7.5 0 1 0 -15 0zM1298.5 206.08 a7.5 7.5 0 1 0 15 0 a7.5 7.5 0 1 0 -15 0zM1298.5 281.08 a7.5 7.5 0 1 0 15 0 a7.5 7.5 0 1 0 -15 0zM1233.55 318.58 a7.5 7.5 0 1 0 15 0 a7.5 7.5 0 1 0 -15 0zM1168.59 281.08 a7.5 7.5 0 1 0 15 0 a7.5 7.5 0 1 0 -15 0zM1168.59 206.08 a7.5 7.5 0 1 0 15 0 a7.5 7.5 0 1 0 -15 0zM1233.55 393.58 a7.5 7.5 0 1 0 15 0 a7.5 7.5 0 1 0 -15 0zM1298.5 431.08 a7.5 7.5 0 1 0 15 0 a7.5 7.5 0 1 0 -15 0zM1298.5 506.08 a7.5 7.5 0 1 0 15 0 a7.5 7.5 0 1 0 -15 0zM1233.55 543.58 a7.5 7.5 0 1 0 15 0 a7.5 7.5 0 1 0 -15 0zM1363.45 168.58 a7.5 7.5 0 1 0 15 0 a7.5 7.5 0 1 0 -15 0zM1428.41 206.08 a7.5 7.5 0 1 0 15 0 a7.5 7.5 0 1 0 -15 0zM1428.41 281.08 a7.5 7.5 0 1 0 15 0 a7.5 7.5 0 1 0 -15 0zM1363.45 318.58 a7.5 7.5 0 1 0 15 0 a7.5 7.5 0 1 0 -15 0zM1493.36 -56.42 a7.5 7.5 0 1 0 15 0 a7.5 7.5 0 1 0 -15 0zM1558.32 -18.92 a7.5 7.5 0 1 0 15 0 a7.5 7.5 0 1 0 -15 0zM1558.32 56.08 a7.5 7.5 0 1 0 15 0 a7.5 7.5 0 1 0 -15 0zM1493.36 93.58 a7.5 7.5 0 1 0 15 0 a7.5 7.5 0 1 0 -15 0zM1428.41 56.08 a7.5 7.5 0 1 0 15 0 a7.5 7.5 0 1 0 -15 0zM1428.41 -18.92 a7.5 7.5 0 1 0 15 0 a7.5 7.5 0 1 0 -15 0zM1623.27 93.58 a7.5 7.5 0 1 0 15 0 a7.5 7.5 0 1 0 -15 0zM1623.27 168.58 a7.5 7.5 0 1 0 15 0 a7.5 7.5 0 1 0 -15 0zM1558.32 206.08 a7.5 7.5 0 1 0 15 0 a7.5 7.5 0 1 0 -15 0zM1493.36 168.58 a7.5 7.5 0 1 0 15 0 a7.5 7.5 0 1 0 -15 0zM1558.32 281.08 a7.5 7.5 0 1 0 15 0 a7.5 7.5 0 1 0 -15 0zM1493.36 318.58 a7.5 7.5 0 1 0 15 0 a7.5 7.5 0 1 0 -15 0zM1493.36 393.58 a7.5 7.5 0 1 0 15 0 a7.5 7.5 0 1 0 -15 0zM1558.32 431.08 a7.5 7.5 0 1 0 15 0 a7.5 7.5 0 1 0 -15 0zM1558.32 506.08 a7.5 7.5 0 1 0 15 0 a7.5 7.5 0 1 0 -15 0zM1493.36 543.58 a7.5 7.5 0 1 0 15 0 a7.5 7.5 0 1 0 -15 0zM1428.41 506.08 a7.5 7.5 0 1 0 15 0 a7.5 7.5 0 1 0 -15 0zM1428.41 431.08 a7.5 7.5 0 1 0 15 0 a7.5 7.5 0 1 0 -15 0zM1623.27 543.58 a7.5 7.5 0 1 0 15 0 a7.5 7.5 0 1 0 -15 0zM1623.27 618.58 a7.5 7.5 0 1 0 15 0 a7.5 7.5 0 1 0 -15 0zM1558.32 656.08 a7.5 7.5 0 1 0 15 0 a7.5 7.5 0 1 0 -15 0zM1493.36 618.58 a7.5 7.5 0 1 0 15 0 a7.5 7.5 0 1 0 -15 0z" fill="rgba(0, 0, 0, 0.95)"></path><path d="M7.76 -43.56L51.93 -18.06L51.93 32.94L7.76 58.44L-36.41 32.94L-36.41 -18.06zM51.93 32.94L96.1 58.44L96.1 109.44L51.93 134.94L7.76 109.44L7.76 58.44zM51.93 338.94L96.1 364.44L96.1 415.44L51.93 440.94L7.76 415.44L7.76 364.44zM7.76 415.44L51.93 440.94L51.93 491.94L7.76 517.44L-36.41 491.94L-36.41 440.94zM51.93 491.94L96.1 517.44L96.1 568.44L51.93 593.94L7.76 568.44L7.76 517.44zM96.1 -43.56L140.27 -18.06L140.27 32.94L96.1 58.44L51.93 32.94L51.93 -18.06zM96.1 109.44L140.27 134.94L140.27 185.94L96.1 211.44L51.93 185.94L51.93 134.94zM140.27 185.94L184.43 211.44L184.43 262.44L140.27 287.94L96.1 262.44L96.1 211.44zM140.27 338.94L184.43 364.44L184.43 415.44L140.27 440.94L96.1 415.44L96.1 364.44zM96.1 415.44L140.27 440.94L140.27 491.94L96.1 517.44L51.93 491.94L51.93 440.94zM184.43 -43.56L228.6 -18.06L228.6 32.94L184.43 58.44L140.27 32.94L140.27 -18.06zM184.43 109.44L228.6 134.94L228.6 185.94L184.43 211.44L140.27 185.94L140.27 134.94zM184.43 262.44L228.6 287.94L228.6 338.94L184.43 364.44L140.27 338.94L140.27 287.94zM228.6 491.94L272.77 517.44L272.77 568.44L228.6 593.94L184.43 568.44L184.43 517.44zM272.77 -43.56L316.94 -18.06L316.94 32.94L272.77 58.44L228.6 32.94L228.6 -18.06zM316.94 338.94L361.11 364.44L361.11 415.44L316.94 440.94L272.77 415.44L272.77 364.44zM405.28 185.94L449.45 211.44L449.45 262.44L405.28 287.94L361.11 262.44L361.11 211.44zM405.28 338.94L449.45 364.44L449.45 415.44L405.28 440.94L361.11 415.44L361.11 364.44zM537.78 -43.56L581.95 -18.06L581.95 32.94L537.78 58.44L493.61 32.94L493.61 -18.06zM581.95 32.94L626.12 58.44L626.12 109.44L581.95 134.94L537.78 109.44L537.78 58.44zM581.95 185.94L626.12 211.44L626.12 262.44L581.95 287.94L537.78 262.44L537.78 211.44zM537.78 262.44L581.95 287.94L581.95 338.94L537.78 364.44L493.61 338.94L493.61 287.94zM581.95 338.94L626.12 364.44L626.12 415.44L581.95 440.94L537.78 415.44L537.78 364.44zM537.78 415.44L581.95 440.94L581.95 491.94L537.78 517.44L493.61 491.94L493.61 440.94zM670.29 32.94L714.46 58.44L714.46 109.44L670.29 134.94L626.12 109.44L626.12 58.44zM670.29 491.94L714.46 517.44L714.46 568.44L670.29 593.94L626.12 568.44L626.12 517.44zM714.46 -43.56L758.63 -18.06L758.63 32.94L714.46 58.44L670.29 32.94L670.29 -18.06zM802.79 -43.56L846.96 -18.06L846.96 32.94L802.79 58.44L758.63 32.94L758.63 -18.06zM846.96 185.94L891.13 211.44L891.13 262.44L846.96 287.94L802.79 262.44L802.79 211.44zM802.79 262.44L846.96 287.94L846.96 338.94L802.79 364.44L758.63 338.94L758.63 287.94zM846.96 491.94L891.13 517.44L891.13 568.44L846.96 593.94L802.79 568.44L802.79 517.44zM891.13 -43.56L935.3 -18.06L935.3 32.94L891.13 58.44L846.96 32.94L846.96 -18.06zM891.13 109.44L935.3 134.94L935.3 185.94L891.13 211.44L846.96 185.94L846.96 134.94zM891.13 262.44L935.3 287.94L935.3 338.94L891.13 364.44L846.96 338.94L846.96 287.94zM891.13 415.44L935.3 440.94L935.3 491.94L891.13 517.44L846.96 491.94L846.96 440.94zM1023.64 185.94L1067.81 211.44L1067.81 262.44L1023.64 287.94L979.47 262.44L979.47 211.44zM979.47 262.44L1023.64 287.94L1023.64 338.94L979.47 364.44L935.3 338.94L935.3 287.94zM979.47 415.44L1023.64 440.94L1023.64 491.94L979.47 517.44L935.3 491.94L935.3 440.94zM1067.81 109.44L1111.97 134.94L1111.97 185.94L1067.81 211.44L1023.64 185.94L1023.64 134.94zM1067.81 415.44L1111.97 440.94L1111.97 491.94L1067.81 517.44L1023.64 491.94L1023.64 440.94zM1156.14 262.44L1200.31 287.94L1200.31 338.94L1156.14 364.44L1111.97 338.94L1111.97 287.94zM1200.31 338.94L1244.48 364.44L1244.48 415.44L1200.31 440.94L1156.14 415.44L1156.14 364.44zM1244.48 262.44L1288.65 287.94L1288.65 338.94L1244.48 364.44L1200.31 338.94L1200.31 287.94zM1288.65 338.94L1332.82 364.44L1332.82 415.44L1288.65 440.94L1244.48 415.44L1244.48 364.44zM1244.48 415.44L1288.65 440.94L1288.65 491.94L1244.48 517.44L1200.31 491.94L1200.31 440.94zM1288.65 491.94L1332.82 517.44L1332.82 568.44L1288.65 593.94L1244.48 568.44L1244.48 517.44zM1332.82 -43.56L1376.99 -18.06L1376.99 32.94L1332.82 58.44L1288.65 32.94L1288.65 -18.06zM1376.99 185.94L1421.15 211.44L1421.15 262.44L1376.99 287.94L1332.82 262.44L1332.82 211.44zM1376.99 491.94L1421.15 517.44L1421.15 568.44L1376.99 593.94L1332.82 568.44L1332.82 517.44zM1465.32 32.94L1509.49 58.44L1509.49 109.44L1465.32 134.94L1421.15 109.44L1421.15 58.44zM1421.15 109.44L1465.32 134.94L1465.32 185.94L1421.15 211.44L1376.99 185.94L1376.99 134.94zM1465.32 185.94L1509.49 211.44L1509.49 262.44L1465.32 287.94L1421.15 262.44L1421.15 211.44z" stroke="rgba(0, 0, 0, 0.91)" stroke-width="2"></path></g><defs><mask id="SvgjsMask1078"><rect width="1440" height="560" fill="#ffffff"></rect></mask></defs></svg>